<svg width="100%" height="100%" viewBox="0 0 723 117" version="1.1" xmlns="http://www.w3.org/2000/svg" xmlns:xlink="http://www.w3.org/1999/xlink" xml:space="preserve" style="fill-rule:evenodd;clip-rule:evenodd;stroke-linejoin:round;stroke-miterlimit:2;"> <g> <path d="M66.432,51.654C65.776,51.077 65.156,50.448 64.586,49.756C57.738,41.442 60.115,27.961 69.896,19.647C70.676,18.984 71.482,18.379 72.304,17.822C79.098,27.474 76.573,41.965 66.432,51.654ZM29.632,54.117C30.344,53.357 31.104,52.624 31.921,51.93C41.701,43.615 55.182,43.615 62.03,51.93C62.602,52.624 63.103,53.357 63.548,54.117C52.362,62.631 37.814,62.631 29.632,54.117ZM33.686,17.811C34.283,18.35 34.85,18.931 35.374,19.567C42.222,27.881 39.845,41.362 30.065,49.676C29.253,50.366 28.414,50.993 27.558,51.568C20.904,41.877 23.508,27.435 33.686,17.811ZM70.219,15.322C69.538,16.04 68.814,16.735 68.04,17.393C58.259,25.708 44.779,25.708 37.93,17.393C37.408,16.76 36.947,16.093 36.531,15.404C47.64,7.004 62.031,6.976 70.219,15.322ZM21.057,0.618L8.278,68.967L79.862,68.967L92.642,0.618L21.057,0.618Z" style="fill:rgb(251,173,23);fill-rule:nonzero;" /> <path d="M113.255,8.951L127.62,8.951L130.28,42.545L144.797,8.951L158.857,8.951L134.309,60.635L119.563,60.635L113.255,8.951Z" style="fill:rgb(31,31,31);fill-rule:nonzero;" /> <path d="M166.835,8.951L203.089,8.951L201.037,20.276L178.844,20.276L177.323,28.94L195.717,28.94L193.816,39.885L175.348,39.885L173.676,49.309L196.705,49.309L194.729,60.635L157.715,60.635L166.835,8.951Z" style="fill:rgb(31,31,31);fill-rule:nonzero;" /> <path d="M230.828,31.677C235.616,31.677 238.2,29.016 238.2,24.305C238.2,21.036 236.908,19.896 232.88,19.896L226.8,19.896L224.672,31.677L230.828,31.677ZM214.715,8.951L235.996,8.951C247.853,8.951 252.261,12.828 252.261,22.935C252.261,32.513 248.309,38.745 240.404,41.329L247.549,60.635L232.576,60.635L227.104,42.621L222.771,42.621L219.579,60.635L205.595,60.635L214.715,8.951Z" style="fill:rgb(31,31,31);fill-rule:nonzero;" /> <path d="M265.862,8.951L279.847,8.951L272.778,49.082L292.768,49.082L290.716,60.635L256.742,60.635L265.862,8.951Z" style="fill:rgb(31,31,31);fill-rule:nonzero;" /> <path d="M308.27,8.951L322.254,8.951L313.134,60.635L299.149,60.635L308.27,8.951Z" style="fill:rgb(31,31,31);fill-rule:nonzero;" /> <path d="M327.572,46.041C327.572,44.293 327.725,42.014 328.104,39.885L330.081,28.637C332.589,14.5 339.505,8.039 353.566,8.039C365.727,8.039 371.427,12.904 371.427,23.012C371.427,24.684 371.274,26.508 370.971,28.484L357.746,28.484C357.975,27.041 358.126,25.824 358.126,24.684C358.126,20.885 356.454,19.515 352.502,19.515C347.334,19.515 345.357,21.872 343.989,29.625L342.165,39.961C341.785,42.09 341.634,43.685 341.634,44.901C341.634,48.777 343.153,50.07 347.029,50.07C352.198,50.07 354.174,47.789 355.466,41.178L368.767,41.178C365.954,55.846 358.886,61.547 345.661,61.547C333.349,61.547 327.572,56.605 327.572,46.041Z" style="fill:rgb(31,31,31);fill-rule:nonzero;" /> <path d="M384.192,8.951L398.177,8.951L394.681,28.637L408.361,28.637L411.858,8.951L425.843,8.951L416.723,60.635L402.737,60.635L406.31,40.189L392.629,40.189L389.057,60.635L375.072,60.635L384.192,8.951Z" style="fill:rgb(31,31,31);fill-rule:nonzero;" /> <path d="M445.22,20.504L432.224,20.504L434.275,8.951L474.254,8.951L472.201,20.504L459.205,20.504L452.137,60.635L438.151,60.635L445.22,20.504Z" style="fill:rgb(31,31,31);fill-rule:nonzero;" /> <path d="M482.688,8.951L496.672,8.951L487.552,60.635L473.567,60.635L482.688,8.951Z" style="fill:rgb(31,31,31);fill-rule:nonzero;" /> <path d="M509.591,8.951L523.12,8.951L532.924,38.213L538.093,8.951L550.785,8.951L541.665,60.635L528.972,60.635L518.636,29.777L513.163,60.635L500.471,60.635L509.591,8.951Z" style="fill:rgb(31,31,31);fill-rule:nonzero;" /> <path d="M556.025,46.193C556.025,44.293 556.254,42.014 556.634,39.808L558.686,28.181C561.194,14.119 568.719,8.039 582.171,8.039C594.256,8.039 600.641,13.056 600.641,22.557C600.641,23.545 600.564,24.608 600.412,25.748L587.188,25.748C587.264,25.14 587.264,24.912 587.264,24.532C587.264,20.885 585.516,19.515 581.487,19.515C576.471,19.515 573.963,21.492 572.519,29.625L570.694,39.961C570.391,41.709 570.238,43.229 570.238,44.521C570.238,48.55 571.911,50.07 576.167,50.07C581.184,50.07 583.539,47.941 584.831,41.633L577.687,41.633L579.511,31.373L599.88,31.373L598.132,41.254C595.624,55.542 588.327,61.547 574.723,61.547C562.106,61.547 556.025,56.378 556.025,46.193Z" style="fill:rgb(31,31,31);fill-rule:nonzero;" /> <path d="M641.08,8.951L654.609,8.951L664.413,38.213L669.582,8.951L682.274,8.951L673.154,60.635L660.461,60.635L650.125,29.777L644.652,60.635L631.96,60.635L641.08,8.951Z" style="fill:rgb(251,173,23);fill-rule:nonzero;" /> <path d="M695.191,8.951L709.175,8.951L702.107,49.082L722.096,49.082L720.045,60.635L686.071,60.635L695.191,8.951Z" style="fill:rgb(251,173,23);fill-rule:nonzero;" /> <path d="M8.367,110.725C13.553,110.725 16.269,108.484 17.25,103.444L18.348,97.878C18.542,96.968 18.591,96.163 18.601,95.498C18.652,91.998 16.714,90.633 12.436,90.633L6.416,90.633L2.42,110.725L8.367,110.725ZM4.703,88.778L12.789,88.778C18.083,88.778 20.774,90.773 20.709,95.183C20.695,96.093 20.573,96.968 20.377,97.984L19.279,103.549C18.025,109.885 14.686,112.58 8.34,112.58L0,112.58L4.703,88.778Z" style="fill:rgb(79,81,81);fill-rule:nonzero;" /> <path d="M49.695,81.742L52.415,81.742L47.127,86.188L44.916,86.188L49.695,81.742ZM38.604,88.778L54.414,88.778L54.06,90.633L40.317,90.633L38.556,99.419L50.486,99.419L50.132,101.273L38.202,101.273L36.321,110.725L50.427,110.725L50.074,112.58L33.901,112.58L38.604,88.778Z" style="fill:rgb(79,81,81);fill-rule:nonzero;" /> <path d="M102.925,103.654L104.101,97.668C104.257,96.899 104.342,96.093 104.352,95.393C104.404,91.893 102.471,90.213 98.373,90.213C93.441,90.213 90.432,92.628 89.45,97.703L88.274,103.688C88.117,104.459 88.033,105.264 88.023,105.964C87.971,109.465 89.904,111.144 94.002,111.144C98.933,111.144 101.943,108.729 102.925,103.654ZM85.953,106.14C85.964,105.404 86.012,104.599 86.207,103.688L87.458,97.529C88.672,91.473 92.417,88.358 98.509,88.358C103.731,88.358 106.526,90.668 106.458,95.218C106.447,95.953 106.363,96.758 106.168,97.668L104.953,103.829C103.776,109.885 99.994,113 93.902,113C88.681,113 85.886,110.689 85.953,106.14Z" style="fill:rgb(79,81,81);fill-rule:nonzero;" /> <path d="M142.268,88.778L137.601,112.58L135.607,112.58L125.838,91.473L121.682,112.58L119.651,112.58L124.355,88.778L126.748,88.778L136.236,109.289L140.274,88.778L142.268,88.778Z" style="fill:rgb(79,81,81);fill-rule:nonzero;" /> <path d="M159.888,88.778L161.955,88.778L157.605,110.725L170.551,110.725L170.197,112.58L155.184,112.58L159.888,88.778Z" style="fill:rgb(79,81,81);fill-rule:nonzero;" /> <path d="M189.148,88.778L191.215,88.778L186.511,112.58L184.445,112.58L189.148,88.778Z" style="fill:rgb(79,81,81);fill-rule:nonzero;" /> <path d="M226.713,88.778L222.046,112.58L220.052,112.58L210.283,91.473L206.127,112.58L204.096,112.58L208.8,88.778L211.193,88.778L220.681,109.289L224.718,88.778L226.713,88.778Z" style="fill:rgb(79,81,81);fill-rule:nonzero;" /> <path d="M244.333,88.778L260.142,88.778L259.789,90.633L246.046,90.633L244.284,99.419L256.213,99.419L255.861,101.273L243.93,101.273L242.05,110.725L256.156,110.725L255.802,112.58L239.629,112.58L244.333,88.778Z" style="fill:rgb(79,81,81);fill-rule:nonzero;" /> <path d="M296.037,88.778L298.103,88.778L293.754,110.725L306.7,110.725L306.346,112.58L291.333,112.58L296.037,88.778Z" style="fill:rgb(79,81,81);fill-rule:nonzero;" /> <path d="M325.297,88.778L327.364,88.778L322.66,112.58L320.593,112.58L325.297,88.778Z" style="fill:rgb(79,81,81);fill-rule:nonzero;" /> <path d="M340.556,106.279C340.569,105.369 340.653,104.599 340.848,103.688L342.099,97.529C343.313,91.473 346.84,88.358 352.787,88.358C357.791,88.358 360.406,90.563 360.348,94.484C360.339,95.078 360.296,95.569 360.215,96.093L358.185,96.093C358.226,95.708 358.269,95.288 358.275,94.869C358.321,91.788 356.458,90.213 352.651,90.213C347.901,90.213 345.109,92.663 344.09,97.774L342.915,103.688C342.72,104.599 342.672,105.369 342.662,106.069C342.611,109.534 344.473,111.144 348.353,111.144C352.595,111.144 355.344,109.184 356.344,105.299L358.411,105.299C357.139,110.409 353.692,113 348.289,113C343.14,113 340.49,110.689 340.556,106.279Z" style="fill:rgb(79,81,81);fill-rule:nonzero;" /> <path d="M377.581,88.743L379.648,88.743L377.532,99.384L391.421,99.384L393.536,88.743L395.603,88.743L390.899,112.58L388.833,112.58L391.066,101.273L377.178,101.273L374.944,112.58L372.877,112.58L377.581,88.743Z" style="fill:rgb(79,81,81);fill-rule:nonzero;" /> <path d="M417.292,90.633L409.496,90.633L409.849,88.778L427.473,88.778L427.119,90.633L419.359,90.633L415.01,112.58L412.943,112.58L417.292,90.633Z" style="fill:rgb(79,81,81);fill-rule:nonzero;" /> <path d="M436.328,107.68C436.334,107.225 436.378,106.769 436.457,106.279L438.524,106.279C438.445,106.699 438.404,107.049 438.399,107.399C438.36,109.989 440.411,111.144 444.254,111.144C448.932,111.144 451.791,109.079 451.85,105.089C451.88,103.058 450.228,101.974 445.959,101.308C440.894,100.504 438.992,99.139 439.034,96.303C439.11,91.193 442.959,88.358 448.58,88.358C453.366,88.358 455.806,90.143 455.757,93.468C455.75,93.923 455.707,94.378 455.626,94.904L453.56,94.904C453.639,94.449 453.681,94.063 453.686,93.713C453.723,91.228 451.997,90.213 448.552,90.213C444.128,90.213 441.16,92.278 441.106,95.989C441.078,97.878 442.551,98.788 446.747,99.453C451.957,100.294 453.966,101.799 453.921,104.844C453.841,110.199 450.065,113 444.154,113C439.005,113 436.277,111.074 436.328,107.68Z" style="fill:rgb(79,81,81);fill-rule:nonzero;" /> <path d="M479.25,100.959C483.891,100.959 486.5,98.649 486.56,94.588C486.603,91.648 485.277,90.633 481.397,90.633L474.398,90.633L472.36,100.959L479.25,100.959ZM472.685,88.778L481.75,88.778C486.719,88.778 488.653,90.353 488.593,94.413C488.514,99.769 485.097,102.813 479.113,102.813L471.97,102.813L470.049,112.58L467.982,112.58L472.685,88.778Z" style="fill:rgb(79,81,81);fill-rule:nonzero;" /> <path d="M504.81,88.778L520.62,88.778L520.266,90.633L506.523,90.633L504.761,99.419L516.69,99.419L516.338,101.273L504.407,101.273L502.527,110.725L516.633,110.725L516.28,112.580L500.106,112.58L504.81,88.778Z" style="fill:rgb(79,81,81);fill-rule:nonzero;" /> <path d="M532.324,106.279C532.337,105.369 532.421,104.599 532.616,103.688L533.867,97.529C535.081,91.473 538.608,88.358 544.555,88.358C549.559,88.358 552.174,90.563 552.116,94.484C552.107,95.078 552.063,95.569 551.983,96.093L549.953,96.093C549.994,95.708 550.037,95.288 550.043,94.869C550.089,91.788 548.226,90.213 544.419,90.213C539.669,90.213 536.877,92.663 535.858,97.774L534.683,103.688C534.488,104.599 534.44,105.369 534.43,106.069C534.379,109.534 536.241,111.144 540.121,111.144C544.364,111.144 547.112,109.184 548.112,105.299L550.179,105.299C548.907,110.409 545.46,113 540.057,113C534.908,113 532.258,110.689 532.324,106.279Z" style="fill:rgb(79,81,81);fill-rule:nonzero;" /> <path d="M569.348,88.778L571.415,88.778L566.712,112.58L564.645,112.58L569.348,88.778Z" style="fill:rgb(79,81,81);fill-rule:nonzero;" /> <path d="M598.312,104.004L595.853,91.228L588.412,104.004L598.312,104.004ZM595.237,88.778L597.376,88.778L602.102,112.58L599.926,112.58L598.647,105.859L587.333,105.859L583.354,112.58L581.142,112.58L595.237,88.778Z" style="fill:rgb(79,81,81);fill-rule:nonzero;" /> <path d="M621.234,88.778L623.3,88.778L618.951,110.725L631.897,110.725L631.543,112.58L616.53,112.58L621.234,88.778Z" style="fill:rgb(79,81,81);fill-rule:nonzero;" /> <path d="M650.494,88.778L652.56,88.778L647.857,112.58L645.79,112.58L650.494,88.778Z" style="fill:rgb(79,81,81);fill-rule:nonzero;" /> <path d="M664.354,107.68C664.361,107.225 664.404,106.769 664.484,106.279L666.551,106.279C666.472,106.699 666.431,107.049 666.425,107.399C666.387,109.989 668.438,111.144 672.281,111.144C676.959,111.144 679.818,109.079 679.877,105.089C679.907,103.058 678.255,101.974 673.986,101.308C668.921,100.504 667.019,99.139 667.061,96.303C667.136,91.193 670.986,88.358 676.607,88.358C681.393,88.358 683.833,90.143 683.784,93.468C683.777,93.923 683.734,94.378 683.653,94.904L681.586,94.904C681.666,94.449 681.708,94.063 681.713,93.713C681.749,91.228 680.024,90.213 676.579,90.213C672.155,90.213 669.187,92.278 669.132,95.989C669.104,97.878 670.578,98.788 674.774,99.453C679.984,100.294 681.992,101.799 681.947,104.844C681.868,110.199 678.092,113 672.181,113C667.032,113 664.304,111.074 664.354,107.68Z" style="fill:rgb(79,81,81);fill-rule:nonzero;" /> <path d="M704.782,90.633L696.985,90.633L697.339,88.778L714.963,88.778L714.609,90.633L706.849,90.633L702.5,112.58L700.433,112.58L704.782,90.633Z" style="fill:rgb(79,81,81);fill-rule:nonzero;" /> <path d="M607.292,49.123L605.261,60.635L619.245,60.635L621.277,49.123L607.292,49.123Z" style="fill:rgb(251,173,23);fill-rule:nonzero;" /> </g> </svg>
