<svg xmlns="http://www.w3.org/2000/svg" version="1.1" xmlns:xlink="http://www.w3.org/1999/xlink" width="512" height="512"><svg width="512" height="512" viewBox="0 0 512 512" version="1.1" xmlns="http://www.w3.org/2000/svg" xmlns:xlink="http://www.w3.org/1999/xlink" xml:space="preserve" xmlns:serif="http://www.serif.com/" style="fill-rule:evenodd;clip-rule:evenodd;stroke-linejoin:round;stroke-miterlimit:2;">
    <g transform="matrix(5.895511,0,0,5.895511,8,50.960611)">
        <path d="M58.153,51.687C57.498,51.11 56.878,50.481 56.308,49.789C49.46,41.475 51.837,27.995 61.617,19.68C62.397,19.017 63.203,18.413 64.025,17.855C70.82,27.507 68.295,41.999 58.153,51.687ZM21.353,54.15C22.065,53.39 22.826,52.657 23.642,51.963C33.423,43.648 46.903,43.648 53.751,51.963C54.323,52.657 54.825,53.39 55.269,54.15C44.084,62.664 29.536,62.664 21.353,54.15ZM25.408,17.844C26.005,18.383 26.571,18.964 27.095,19.6C33.944,27.915 31.567,41.395 21.786,49.709C20.975,50.399 20.136,51.026 19.279,51.602C12.626,41.91 15.23,27.468 25.408,17.844ZM61.94,15.355C61.259,16.074 60.536,16.768 59.761,17.427C49.981,25.741 36.5,25.741 29.652,17.427C29.13,16.793 28.668,16.127 28.253,15.438C39.362,7.037 53.752,7.01 61.94,15.355ZM12.779,0.652L0,69L71.584,69L84.363,0.652L12.779,0.652Z" style="fill:rgb(251,173,23);fill-rule:nonzero;"></path>
    </g>
</svg><style>@media (prefers-color-scheme: light) { :root { filter: none; } }
@media (prefers-color-scheme: dark) { :root { filter: none; } }
</style></svg>